# xmcd
# Track frame offsets:
# 150
# 20375
# 35297
# 50824
# 63007
# 91501
# 110150
# 125132
#
# Disc length: 1874 seconds
# Revision: 0
# Processed by: cddbd v1.4PL0 Copyright (c) Steve Scherf et al.
# Submitted via: VisiTrax 2.9.5.181 - For more info visit www.synapsa.com
#
DISCID=64075008
DTITLE=Jacob and The Jackals - Demo
DYEAR=2002
DGENRE=Blues
TTITLE0=Fine little mama
TTITLE1=Mercury fourtynine
TTITLE2=Fool me
TTITLE3=Workin´class
TTITLE4=Too many dirty dishes
TTITLE5=Give me back my wig
TTITLE6=Bayou priest
TTITLE7=The jackals swing
EXTD=
EXTT0=
EXTT1=
EXTT2=
EXTT3=
EXTT4=
EXTT5=
EXTT6=
EXTT7=
PLAYORDER=
